<svg width="330" height="51" viewBox="0 0 330 51" fill="none" xmlns="http://www.w3.org/2000/svg">
<path d="M10.787 49.848H-1.93715e-05V2.61302H21.172L28.006 47.168H30.753L37.587 2.61302H58.759V49.848H47.972V12.06L49.982 5.29302H47.302L39.798 49.848H18.961L11.457 5.29302H8.70998L10.787 12.06V49.848ZM63.4851 2.61302H105.092V12.06H89.6821V49.848H78.9621V12.06H63.4851V2.61302Z" fill="#fff"/>
<path d="M127.211 49.848H109.791V2.61302H126.407C139.606 2.61302 145.971 4.89102 145.971 14.204C145.971 23.048 139.606 23.249 134.581 23.651V26.331C141.75 26.599 149.455 27.269 149.455 37.319C149.455 48.039 139.539 49.848 127.211 49.848ZM120.578 12.06V20.569H127.814C132.102 20.569 135.184 20.569 135.184 16.281C135.184 12.06 132.102 12.06 127.814 12.06H120.578ZM120.578 29.949V40.401H128.551C134.916 40.401 138.668 40.468 138.668 35.242C138.668 29.949 134.916 29.949 128.551 29.949H120.578ZM154.186 40.602C154.186 34.773 157.67 31.356 167.72 29.949L178.373 28.475C178.373 25.728 176.229 24.12 171.606 24.12C167.318 24.12 164.973 25.862 164.973 28.944H154.856C154.856 20.368 162.159 15.343 171.606 15.343C180.919 15.343 189.16 19.832 189.16 30.954V40.401H194.051V49.848H186.547C183.331 49.848 181.522 48.039 181.522 44.823V44.153L183.197 40.133H180.517C179.244 45.761 175.961 50.518 166.514 50.518C155.995 50.518 154.186 44.086 154.186 40.602ZM164.973 38.592C164.973 40.535 166.849 41.138 168.658 41.138C174.487 41.138 178.373 38.659 178.373 34.505L169.73 35.711C166.581 36.18 164.973 36.649 164.973 38.592ZM211.504 25.46V41.071L223.966 40.401V49.848L206.412 50.518C202.727 50.652 200.717 48.508 200.717 44.823V25.46H192.677V16.013H200.717V9.64802L211.504 6.29802V16.013H222.626V25.46H211.504ZM244.808 25.46V41.071L257.27 40.401V49.848L239.716 50.518C236.031 50.652 234.021 48.508 234.021 44.823V25.46H225.981V16.013H234.021V9.64802L244.808 6.29802V16.013H255.93V25.46H244.808ZM290.826 49.848H261.279V40.401H270.659V9.64802L262.619 10.05V0.603022L275.55 0.13402C279.369 2.12789e-05 281.446 2.01002 281.446 5.76202V40.401H290.826V49.848ZM292.832 32.495C292.832 21.775 300.135 15.343 310.654 15.343C321.173 15.343 328.543 21.574 328.543 31.825V35.175H302.949C302.949 39.061 305.696 41.808 311.793 41.808C315.545 41.808 318.359 40.468 319.029 37.922H329.749C329.146 42.813 323.518 50.518 311.793 50.518C298.795 50.518 292.832 42.076 292.832 32.495ZM302.949 29.145H318.493C318.493 26.599 316.617 24.12 310.654 24.12C304.691 24.12 302.949 26.599 302.949 29.145Z" fill="url(#paint0_linear_117_678)"/>
<defs>
<linearGradient id="paint0_linear_117_678" x1="-4.30029" y1="33.348" x2="332.7" y2="33.348" gradientUnits="userSpaceOnUse">
<stop offset="0.274038" stop-color="#1B74FD"/>
<stop offset="1" stop-color="#F6354C"/>
</linearGradient>
</defs>
</svg>
